<?xml version="1.0" encoding="utf-8"?>
<!-- Generator: Adobe Illustrator 22.0.0, SVG Export Plug-In . SVG Version: 6.00 Build 0)  -->
<svg xmlns="http://www.w3.org/2000/svg" xmlns:xlink="http://www.w3.org/1999/xlink" version="1.1" id="Layer_1" x="0px" y="0px" width="30px" height="353.9px" viewBox="0 0 30 353.9" style="enable-background:new 0 0 30 353.9;" xml:space="preserve">
<style type="text/css">
	.st0{fill:#2F2F2F;}
	.st1{fill:#B8B8B8;}
	.st2{fill:#BFBFBF;}
	.st3{fill:#FFFFFF;}
</style>
<path class="st0" d="M18.2,10H21v5l2,2l-1,1l-7-6.2L8,18l-1-1l7.3-6.7c0.2-0.2,0.4-0.3,0.7-0.3s0.5,0.1,0.7,0.3l2.5,2.2V10z M21,18  v5.2c0,0.2-0.1,0.3-0.2,0.5c-0.1,0.1-0.3,0.2-0.4,0.2H16v-4h-2v4H9.6c-0.2,0-0.3-0.1-0.4-0.2S9,23.5,9,23.3V18l5.9-5.1L21,18L21,18z  "/>
<path class="st1" d="M18.2,33H21v5l2,2l-1,1l-7-6.2L8,41l-1-1l7.3-6.7c0.2-0.2,0.4-0.3,0.7-0.3s0.5,0.1,0.7,0.3l2.5,2.2V33z M21,41  v5.2c0,0.2-0.1,0.3-0.2,0.5c-0.1,0.1-0.3,0.2-0.4,0.2H16v-4h-2v4H9.6c-0.2,0-0.3-0.1-0.4-0.2c-0.1,0-0.2-0.2-0.2-0.4V41l5.9-5.1  L21,41L21,41z"/>
<path class="st0" d="M11.4,57.9c1.1-0.6,2.2-0.9,3.6-0.9c1.2,0,2.4,0.3,3.6,0.9c1.1,0.6,1.9,1.5,2.5,2.5c0.6,1.1,0.9,2.2,0.9,3.6  c0,1.2-0.3,2.4-0.9,3.6c-0.6,1.1-1.5,1.9-2.5,2.5C17.4,70.7,16.3,71,15,71c-1.2,0-2.4-0.3-3.6-0.9c-1.1-0.6-1.8-1.5-2.5-2.6  C8.3,66.3,8,65.2,8,63.9c0-1.2,0.3-2.4,0.9-3.6S10.4,58.5,11.4,57.9z M17.5,61.7C17.4,61.7,17.4,61.8,17.5,61.7l-0.2,0.2v-0.1  C17.4,61.7,17.4,61.7,17.5,61.7c-0.1-0.1,0-0.1,0.1-0.2c0.1,0,0.2-0.1,0.5-0.1c0.2,0,0.4,0,0.5,0.1c0,0,0-0.1,0.1-0.1l0.1-0.1H19  c0.1,0,0.1,0,0.1-0.1V61c-0.1,0-0.1,0-0.2-0.1c0,0-0.1-0.1-0.1-0.2l-0.1,0.1v-0.1h-0.1h-0.1c-0.1,0-0.1,0-0.1-0.1l-0.1-0.1v-0.1  c0,0,0-0.1-0.1-0.1L18,60.1V60h-0.1c0,0,0,0.1-0.1,0.1h-0.1h-0.1h-0.1c0.1,0,0.1-0.1,0-0.1h-0.1c0.1,0,0.1-0.1,0.1-0.1  s0-0.1-0.1-0.1l-0.1-0.1c0,0-0.1-0.1-0.2-0.1s-0.1,0-0.1-0.1c0,0-0.1-0.1-0.3-0.1h-0.3v0.1v0.1v0.1v0.1l-0.1,0.1c0,0,0,0.1,0.1,0.1  c0.1,0.1,0.1,0.1,0.1,0.2l-0.1,0.1c-0.1,0-0.1,0.1-0.1,0.1v0.2c0,0.1,0.1,0.1,0.1,0.1h-0.1c-0.1,0-0.1,0-0.2-0.1s-0.1,0-0.1-0.2  s-0.1-0.2-0.1-0.3h-0.3c0-0.1-0.2-0.2-0.4-0.2c-0.1-0.1-0.3-0.1-0.5,0v-0.1c0-0.1-0.1-0.1-0.2-0.1v-0.2v-0.1c0-0.1,0.1-0.1,0.1-0.2  l0.1-0.1l0.1-0.1v-0.1c0.2,0,0.4,0,0.4-0.1c0,0,0.1-0.1,0.1-0.2s0.1-0.1,0.1-0.2c0.1,0,0.1-0.1,0.1,0h0.1h0.1c0.1,0,0.1,0,0.1-0.1  s0-0.1-0.1-0.2c0.1,0,0.1,0,0-0.2c0,0,0-0.1-0.1-0.1h-0.2v0.1L15.3,58c-0.1,0.1-0.1,0.1-0.1,0.2h-0.1v-0.1C15.1,58,15,58,15,58  s-0.1,0-0.1,0.1c0,0,0-0.1-0.1-0.1s-0.2-0.1-0.2-0.1c0.1-0.1,0.1-0.2-0.1-0.2h-0.2h-0.2v0.1v0.1h0.1h0.1h0.1l0.1,0.1h-0.1h-0.1h-0.1  v0.1v0.1c0,0-0.1-0.1-0.1-0.2s0-0.1-0.1-0.1c0,0.1,0,0.1-0.2,0.1h-0.1h-0.1h-0.2c-0.1,0-0.1,0-0.1-0.1v-0.2c0,0-0.1,0-0.1-0.1  l-0.1-0.1c-0.3,0.1-0.6,0.2-0.8,0.4h0.1c0,0,0.1,0,0.1-0.1h0.1c0.2-0.1,0.3-0.1,0.4-0.1c0.1,0.1,0.1,0.2,0.2,0.2h-0.3  c-0.1,0-0.2,0.1-0.2,0.1c0,0.1,0.1,0.1,0,0.2c0,0-0.1,0-0.1-0.1L12.5,58h-0.1h-0.2c-0.9,0.5-1.6,1.1-2.1,2l0.1,0.1v0.1v0.1h0.1  c0.1,0,0.1,0.1,0,0.2c0,0,0.1,0.1,0.4,0.2l0.2,0.2c0,0.1,0,0.1-0.1,0.2L10.7,61c0,0-0.1-0.1-0.1,0v0.2l0.1,0.1c0,0-0.1,0-0.1,0.1  v0.3V62v0.3c0.1,0.1,0.1,0.2,0.2,0.2c-0.1,0,0,0.1,0.2,0.4V63c0,0,0.1,0,0.1,0.1c0.1,0,0.1,0.1,0.1,0.1l0.1,0.1c0,0,0.1,0.1,0.1,0.2  c0,0.1,0.1,0.2,0.1,0.2s0,0.1,0.1,0.2c0.1,0.1,0.1,0.2,0.1,0.2l0.1,0.1c0.1,0,0.1,0.1,0.1,0.1v0.1v0.1H12c0-0.1-0.1-0.3-0.2-0.6  c0.1,0.6,0.1,0.5,0.1,0.5v-0.1v-0.1H12h0.1h0.1v0.2c0,0.1,0.1,0.1,0.1,0.2l0.2,0.2l0.1,0.1c0,0,0.1,0.1,0.1,0.2s0,0.1,0,0.1  c0.1,0,0.1,0,0.2,0.1l0.2,0.2c0,0,0.1,0.1,0.1,0.2v0.2c0,0,0,0.1,0.1,0.1l0.1,0.1c0,0,0.1,0,0.1,0.1c0.1,0,0.1,0.1,0.1,0.1  s0.1,0,0.2,0.1c0.1,0.1,0.1,0.1,0.2,0.1h0.1h0.1h0.1c0.1,0,0.2,0,0.3,0.1s0.1,0.2,0.2,0.2c0.2,0.1,0.4,0.1,0.5,0.1V67  c0,0,0,0.1,0.1,0.1c0,0.1,0.1,0.1,0.1,0.1v0.1c0,0,0.1,0.1,0.2,0.1c0.1,0.1,0.1,0.1,0.2,0.1l0.1-0.1c0,0,0,0.1,0.1,0.2  s0.1,0.1,0.2,0.1s0.1-0.1,0.1-0.3c-0.2,0.1-0.3,0-0.4-0.2v-0.1V67v-0.1h0.1v-0.1v-0.1c0,0,0-0.1-0.1-0.2v-0.1c0,0.1-0.1,0.1-0.1,0.1  c-0.1,0-0.1,0-0.1-0.1v0.1h-0.1v-0.2v-0.2V66c0,0,0-0.1,0.1-0.1v-0.1v-0.1h-0.2c-0.1,0-0.2,0.1-0.2,0.2V66v0.1l-0.1,0.1h-0.2h-0.2  c-0.1,0-0.1-0.1-0.2-0.3C14,65.6,14,65.5,14,65.4v-0.2V65v-0.2l0.1-0.1l0.1-0.1v-0.1h0.3h0.2c0.1,0.1,0.2,0.1,0.2,0v-0.1v-0.1  c0,0.2,0.1,0.2,0.3,0.1h0.1h0.2h0.1l0,0l0.1-0.1c0.1,0.1,0.1,0.2,0.1,0.2c0.1,0.2,0.1,0.4,0.2,0.4h0.1v-0.1v-0.1v-0.1v-0.1v-0.2  v-0.1c-0.1,0-0.1-0.1-0.2-0.1v-0.2c0-0.1,0.1-0.1,0.1-0.2h0.1c0,0,0.1,0,0.1-0.1c0.1,0,0.1,0,0.1-0.1c0.1-0.1,0.2-0.2,0.1-0.3  c0,0,0.1,0,0.1-0.1h-0.1c0.1,0,0.1-0.1,0-0.1l0.1-0.1c0,0,0-0.1,0.1-0.1c0.1,0.1,0.1,0.1,0.2,0c0,0,0.1-0.1,0-0.1  c0,0,0.1-0.1,0.2-0.1s0.1,0,0.2-0.1h0.1v-0.1v-0.1l0.1-0.1h0.1l0.2-0.1c0.1,0,0.2,0,0.3-0.1s0-0.1-0.1-0.2v-0.1h-0.1h0.1H18  c0.1-0.1,0.1-0.1-0.1-0.1C17.7,61.6,17.6,61.6,17.5,61.7L17.5,61.7z M16,69.7c1.2-0.2,2.3-0.8,3.1-1.7H19l0,0  c-0.1,0-0.2-0.1-0.2-0.1v-0.1c0,0,0-0.1-0.1-0.1c0,0-0.1,0-0.1-0.1l-0.1-0.1l-0.1-0.1h-0.1h-0.1H18h-0.1c-0.1-0.1-0.2-0.2-0.3-0.2  h-0.1c0,0-0.1,0-0.1-0.1h-0.1c0,0-0.1,0-0.1,0.1c0,0,0,0.1-0.1,0.1v0.1v-0.2V67H17h-0.1c0,0-0.1,0-0.1,0.1l-0.1,0.1h-0.1  c0,0-0.1,0-0.1,0.1c0,0,0,0.1-0.1,0.1v0.1l-0.1-0.1h-0.1v0.3V68c0,0.2,0,0.3-0.1,0.4c-0.2,0.1-0.2,0.3-0.3,0.4c0,0.1,0,0.2,0.1,0.2  c0,0,0,0.1-0.1,0.2c0,0.1-0.1,0.1-0.1,0.2C16,69.6,16,69.6,16,69.7L16,69.7z"/>
<path class="st0" d="M22,178.1v2.1c0,0.1,0,0.1-0.1,0.2c0,0.1-0.1,0.1-0.2,0.1l-1.7,0.2c-0.1,0.3-0.2,0.6-0.3,0.8  c0.2,0.3,0.5,0.7,0.9,1.3c0.1,0.1,0.1,0.1,0.1,0.2s0,0.1-0.1,0.2c-0.2,0.2-0.5,0.5-0.9,1.1c-0.4,0.4-0.7,0.6-0.8,0.6  c-0.1,0-0.1,0-0.2-0.1l-1.2-1.1c-0.3,0.1-0.5,0.2-0.8,0.3c-0.1,0.8-0.2,1.4-0.3,1.7c0,0.2-0.1,0.2-0.3,0.2H14c-0.1,0-0.2,0-0.2-0.1  c-0.1,0-0.1-0.1-0.1-0.2l-0.2-1.7c-0.3-0.1-0.6-0.2-0.8-0.3l-1.2,0.9c-0.1,0.1-0.1,0.1-0.2,0.1c-0.1,0-0.2,0-0.2-0.1L9.4,183  c0-0.1-0.1-0.1-0.1-0.2c0-0.1,0-0.1,0.1-0.2c0.1-0.1,0.2-0.3,0.5-0.6c0.2-0.3,0.4-0.5,0.5-0.6c-0.2-0.3-0.3-0.6-0.4-0.9l-1.7-0.2  c-0.1,0-0.1,0-0.2-0.1c0-0.1-0.1-0.1-0.1-0.2v-2.1c0-0.1,0-0.1,0.1-0.2c0-0.1,0.1-0.1,0.2-0.1l1.7-0.2c0.1-0.3,0.2-0.5,0.3-0.8  c-0.2-0.3-0.6-0.7-0.9-1.3c-0.1-0.1-0.1-0.1-0.1-0.2s0-0.1,0.1-0.2c0.2-0.2,0.4-0.5,0.9-0.9c0.4-0.4,0.7-0.6,0.8-0.6s0.2,0,0.2,0.1  l1.2,0.9c0.3-0.1,0.5-0.2,0.8-0.3c0.1-0.8,0.2-1.4,0.3-1.7c0-0.2,0.1-0.2,0.3-0.2H16c0.1,0,0.2,0,0.2,0.1c0.1,0.1,0.1,0.1,0.1,0.2  l0.2,1.7c0.3,0.1,0.6,0.2,0.8,0.3l1.3-0.9c0.1-0.1,0.1-0.1,0.2-0.1s0.1,0,0.2,0.1c0.8,0.7,1.2,1.3,1.6,1.6c0,0,0.1,0.1,0.1,0.2  c0,0.1,0,0.1-0.1,0.2c-0.1,0.1-0.2,0.3-0.5,0.6c-0.2,0.3-0.4,0.5-0.5,0.6c0.2,0.3,0.3,0.6,0.4,0.9l1.7,0.2  C21.8,177.9,21.8,177.9,22,178.1C22,177.9,22,178.1,22,178.1z M16.6,180.8c0.4-0.4,0.7-1.1,0.7-1.7c0-0.6-0.2-1.3-0.7-1.7  c-0.4-0.4-1-0.7-1.7-0.7c-0.6,0-1.2,0.2-1.7,0.7c-0.4,0.4-0.7,1.1-0.7,1.7c0,0.6,0.2,1.3,0.7,1.7c0.4,0.4,1,0.7,1.7,0.7  S16.2,181.3,16.6,180.8z"/>
<path class="st0" d="M21,299.2v1.7c0,0.1,0,0.1-0.1,0.2c0,0.1-0.1,0.1-0.2,0.1l-1.4,0.2c-0.1,0.3-0.2,0.5-0.3,0.7  c0.2,0.3,0.5,0.6,0.8,1.1c0.1,0.1,0.1,0.1,0.1,0.2s0,0.1-0.1,0.2c-0.1,0.2-0.4,0.5-0.8,0.8c-0.4,0.4-0.6,0.6-0.7,0.6s-0.1,0-0.2-0.1  L17,304c-0.2,0.1-0.5,0.2-0.7,0.3c-0.1,0.7-0.2,1.2-0.2,1.5c0,0.1-0.1,0.2-0.3,0.2h-1.7c-0.1,0-0.1,0-0.2-0.1  c-0.1,0-0.1-0.1-0.1-0.2l-0.2-1.4c-0.3-0.1-0.5-0.2-0.7-0.3l-1.1,0.8c-0.1,0-0.1,0.1-0.2,0.1s-0.1,0-0.2-0.1c-0.7-0.6-1.1-1-1.3-1.3  c0-0.1-0.1-0.1-0.1-0.2s0-0.1,0.1-0.2s0.2-0.3,0.4-0.5s0.3-0.4,0.4-0.6c-0.1-0.3-0.2-0.5-0.3-0.8L9.2,301c-0.1,0-0.1,0-0.2-0.1  c0-0.1-0.1-0.1-0.1-0.2V299c0-0.1,0-0.1,0.1-0.2c0-0.1,0.1-0.1,0.1-0.1l1.5-0.2c0.1-0.2,0.2-0.5,0.3-0.7c-0.2-0.3-0.5-0.7-0.8-1.1  c-0.1-0.1-0.1-0.1-0.1-0.2s0-0.1,0.1-0.2c0.1-0.2,0.4-0.5,0.8-0.8c0.4-0.4,0.6-0.6,0.7-0.6s0.1,0,0.2,0.1l1.2,1  c0.2-0.1,0.5-0.2,0.7-0.3c0.1-0.7,0.2-1.2,0.2-1.5c0-0.1,0.1-0.2,0.3-0.2h1.7c0.1,0,0.1,0,0.2,0.1c0.1,0,0.1,0.1,0.1,0.2l0.2,1.4  c0.3,0.1,0.5,0.2,0.7,0.3l1.1-0.8c0,0,0.1-0.1,0.2-0.1s0.1,0,0.2,0.1c0.7,0.6,1.1,1.1,1.3,1.3c0,0,0.1,0.1,0.1,0.2s0,0.1-0.1,0.2  s-0.2,0.3-0.4,0.5c-0.2,0.2-0.3,0.4-0.4,0.6c0.1,0.3,0.2,0.5,0.3,0.8l1.4,0.2C20.9,299,20.9,299,21,299.2  C21,299.1,21,299.2,21,299.2z M16.4,301.5c0.4-0.4,0.6-0.9,0.6-1.4c0-0.6-0.2-1-0.6-1.4s-0.9-0.6-1.4-0.6c-0.6,0-1,0.2-1.4,0.6  s-0.6,0.9-0.6,1.4c0,0.6,0.2,1,0.6,1.4c0.4,0.4,0.9,0.6,1.4,0.6C15.6,302.1,16,301.9,16.4,301.5z"/>
<rect x="8" y="271" class="st0" width="4" height="3"/>
<rect x="13" y="271" class="st0" width="4" height="3"/>
<rect x="18" y="271" class="st0" width="4" height="3"/>
<rect x="8" y="275" class="st0" width="4" height="3"/>
<rect x="13" y="275" class="st0" width="4" height="3"/>
<rect x="18" y="275" class="st0" width="4" height="3"/>
<rect x="8" y="279" class="st0" width="4" height="3"/>
<rect x="13" y="279" class="st0" width="4" height="3"/>
<rect x="18" y="279" class="st0" width="4" height="3"/>
<g>
	<path class="st0" d="M20.6,203.5H9.4l0.8,9.5h9.7L20.6,203.5z"/>
	<path class="st0" d="M17.8,200.7V198h-5.6v2.7H8v1.4h14v-1.4H17.8z M16,200.7h-2v-1.4h2V200.7z"/>
</g>
<path class="st0" d="M21,151h-3v-3c0-0.6-0.4-1-1-1h-4c-0.3,0-0.5,0.1-0.7,0.3l-3,3C9.1,150.5,9,150.7,9,151v6c0,0.6,0.4,1,1,1h3v3  c0,0.6,0.4,1,1,1h7c0.6,0,1-0.4,1-1v-9C22,151.4,21.6,151,21,151z M13,148v3h-3L13,148z M13.3,154.3c-0.2,0.2-0.3,0.4-0.3,0.7v2h-3  v-5h3.5c0.3,0,0.5-0.2,0.5-0.5V148h3v3c-0.3,0-0.5,0.1-0.7,0.3L13.3,154.3z M17,152v3h-3L17,152z M21,161h-7v-5h3.5  c0.3,0,0.5-0.2,0.5-0.5V152h3V161z"/>
<path class="st2" d="M21.9,235.7c-0.1-0.1-0.1-0.3-0.2-0.4l-2.8-2.8c0.7-1,1.1-2.2,1.1-3.5c0-3.3-2.7-6-6-6s-6,2.7-6,6s2.7,6,6,6  c1.3,0,2.5-0.4,3.5-1.1l2.8,2.8c0.1,0.1,0.2,0.2,0.4,0.2c0.1,0,0.2,0.1,0.3,0.1c0.6,0,1-0.4,1-1C22,235.9,22,235.8,21.9,235.7z   M10,229c0-2.2,1.8-4,4-4s4,1.8,4,4s-1.8,4-4,4S10,231.2,10,229z"/>
<path class="st0" d="M14,250c0.2,0,0.4,0.2,0.4,0.4v1.2c0,0.2,0.2,0.4,0.4,0.4h4.9c0.2,0,0.3,0.2,0.3,0.4v5.2c0,0.2-0.1,0.4-0.3,0.4  h-9.3c-0.2,0-0.3-0.2-0.3-0.4v-7.2c0-0.2,0.1-0.4,0.3-0.4L14,250 M14,249h-3.7c-0.7,0-1.3,0.6-1.3,1.4v7.2c0,0.8,0.6,1.4,1.3,1.4  h9.3c0.7,0,1.3-0.6,1.3-1.4v-5.2c0-0.8-0.6-1.4-1.3-1.4h-4.4v-0.6C15.3,249.6,14.7,249,14,249L14,249z"/>
<g>
	<path class="st1" d="M8.6,88.9h1.6v1.2H8.6V93H7.1v-2.9H2V89l5.1-8h1.5V88.9z M3.6,88.9h3.5V83L3.6,88.9z"/>
	<path class="st1" d="M18.5,87.9c0,1.7-0.3,3-0.9,3.9S16.2,93,15,93s-2.1-0.4-2.7-1.2s-0.9-2.1-0.9-3.7v-2c0-1.7,0.3-3,0.9-3.8   c0.6-0.8,1.5-1.3,2.7-1.3s2.1,0.4,2.7,1.2c0.6,0.8,0.9,2,0.9,3.7v2C18.6,87.9,18.5,87.9,18.5,87.9z M17.1,85.8   c0-1.3-0.2-2.2-0.5-2.7s-0.9-0.9-1.6-0.9c-0.7,0-1.3,0.3-1.6,0.9s-0.5,1.5-0.5,2.6v2.4c0,1.3,0.2,2.2,0.5,2.8   c0.4,0.6,0.9,0.9,1.6,0.9c0.7,0,1.2-0.3,1.6-0.9c0.3-0.6,0.5-1.5,0.5-2.7V85.8z"/>
	<path class="st1" d="M26.4,88.9H28v1.2h-1.6V93H25v-2.9h-5.1v-0.9l5.1-8.3h1.5v8C26.5,88.9,26.4,88.9,26.4,88.9z M21.5,88.9H25V83   L21.5,88.9z"/>
</g>
<g>
	<path class="st0" d="M8.6,109.9h1.6v1.2H8.6v2.9H7.1v-2.9H2V110l5.1-8h1.5V109.9z M3.6,109.9h3.5V104L3.6,109.9z"/>
	<path class="st0" d="M18.5,108.9c0,1.7-0.3,3-0.9,3.9S16.2,114,15,114s-2.1-0.4-2.7-1.2s-0.9-2.1-0.9-3.7v-2c0-1.7,0.3-3,0.9-3.8   c0.6-0.8,1.5-1.3,2.7-1.3s2.1,0.4,2.7,1.2c0.6,0.8,0.9,2,0.9,3.7v2C18.6,108.9,18.5,108.9,18.5,108.9z M17.1,106.8   c0-1.3-0.2-2.2-0.5-2.7s-0.9-0.9-1.6-0.9c-0.7,0-1.3,0.3-1.6,0.9s-0.5,1.5-0.5,2.6v2.4c0,1.3,0.2,2.2,0.5,2.8   c0.4,0.6,0.9,0.9,1.6,0.9c0.7,0,1.2-0.3,1.6-0.9c0.3-0.6,0.5-1.5,0.5-2.7V106.8z"/>
	<path class="st0" d="M26.4,109.9H28v1.2h-1.6v2.9H25v-2.9h-5.1v-0.9l5.1-8.3h1.5v8C26.5,109.9,26.4,109.9,26.4,109.9z M21.5,109.9   H25V104L21.5,109.9z"/>
</g>
<polygon class="st3" points="11,323 7,323 7,319 5,319 5,323 1,323 1,325 5,325 5,329 7,329 7,325 11,325 "/>
<path class="st3" d="M22,319v1v1h1h6v8.1h-6h-1h-6V319H22 M22.2,318h-6.3c-0.5,0-0.8,0.4-0.8,0.8v10.3c0,0.5,0.4,0.8,0.8,0.8H22h1  h6.2c0.5,0,0.8-0.4,0.8-0.8v-8.3c0-0.5-0.4-0.8-0.8-0.8H23v-1.2C23,318.4,22.6,318,22.2,318L22.2,318z"/>
<path class="st0" d="M22.5,348l-1.7,3.2c-0.3,0.5-0.8,0.8-1.4,0.8H9.2c-0.5,0-0.8-0.5-0.5-0.9l1.9-3.2c0.3-0.5,0.8-0.9,1.4-0.9h10  C22.5,347,22.8,347.6,22.5,348z M11.9,346H20v-1c0-0.7-0.3-1-0.9-1H15l-1.7-2H9.2c-0.7,0-1.2,0.7-1.2,1.4v7.1l1.8-3  C10.2,346.7,11,346,11.9,346z"/>
<path class="st0" d="M13.4,125c0.3,0,0.6,0.3,0.6,0.6v1.8c0,0.3,0.3,0.6,0.6,0.6h7.8c0.3,0,0.6,0.3,0.6,0.6v7.8  c0,0.3-0.3,0.6-0.6,0.6H7.6c-0.3,0-0.6-0.3-0.6-0.6v-10.8c0-0.3,0.3-0.6,0.6-0.6L13.4,125 M13.4,124H7.6c-0.9,0-1.6,0.7-1.6,1.6  v10.8c0,0.9,0.7,1.6,1.6,1.6h14.8c0.9,0,1.6-0.7,1.6-1.6v-7.8c0-0.9-0.7-1.6-1.6-1.6H15v-1.4C15,124.7,14.3,124,13.4,124L13.4,124z"/>
</svg>
